<svg xmlns="http://www.w3.org/2000/svg" width="235" height="250" viewBox="0 0 235 250" version="1.1"><path d="" stroke="none" fill="#040c14" fill-rule="evenodd"/><path d="M 119 11.427 C 104.446 15.463, 92.610 24.148, 80.268 39.848 C 78.422 42.197, 78.422 42.197, 73.195 39.115 C 65.363 34.497, 55.267 30.447, 45.470 27.993 C 38.310 26.199, 34.560 25.862, 24.938 26.149 C 18.464 26.342, 12.866 26.800, 12.500 27.166 C 10.855 28.812, 10.052 42.761, 11.103 51.410 C 14.489 79.253, 29.271 102.414, 73.817 149.667 C 90 166.834, 90 166.834, 90.015 171.667 C 90.046 181.797, 94.493 194.814, 101.658 205.743 C 106.003 212.372, 129.342 236.656, 132.256 237.581 C 133.666 238.029, 135.293 237.143, 138.105 234.398 C 140.247 232.306, 141.997 229.898, 141.994 229.047 C 141.977 225.100, 133.666 189.495, 130.825 181.200 C 127.639 171.899, 127.639 171.899, 130.738 168.801 C 133.836 165.702, 133.836 165.702, 137.866 168.894 C 141.783 171.996, 141.880 172.220, 141.328 176.876 C 140.403 184.689, 143.168 192.263, 149.117 198.212 C 153.093 202.189, 154.628 203.113, 156.618 202.733 C 158.486 202.376, 159.529 202.877, 160.730 204.711 C 162.689 207.700, 170.769 214, 172.644 214 C 173.447 214, 174 212.910, 174 211.326 C 174 208.651, 174 208.651, 176.250 210.709 C 180.598 214.685, 188 217.435, 188 215.074 C 188 214.565, 191.001 215.713, 194.670 217.625 C 202.479 221.695, 207.299 221.918, 207.822 218.233 C 208.253 215.193, 206.424 209.904, 203.400 205.448 C 201.587 202.776, 201.207 201.455, 201.983 200.520 C 203.309 198.923, 201.874 194.835, 198.380 190.254 C 195.985 187.113, 195.970 187, 197.949 187 C 201.655 187, 200.269 183.139, 194.488 177.358 C 191.457 174.327, 189.250 171.405, 189.584 170.864 C 190.407 169.533, 185.678 162.877, 181.951 160.122 C 175.644 155.459, 164.848 153.586, 158.401 156.037 C 155.986 156.956, 155.289 156.703, 152.330 153.836 C 148.988 150.596, 148.988 150.596, 152.718 146.777 C 155.160 144.276, 156.974 143.184, 157.974 143.613 C 163.294 145.897, 179.307 149.162, 196.907 151.552 C 217.314 154.323, 217.314 154.323, 221.127 149.912 C 223.224 147.485, 224.954 145.044, 224.970 144.486 C 225.010 143.124, 206.409 126.598, 198.679 121.127 C 191.469 116.025, 178.483 109.735, 171.885 108.149 C 169.346 107.538, 163.946 106.747, 159.885 106.390 C 154.504 105.917, 151.892 105.188, 150.261 103.707 C 148.023 101.673, 148.023 101.673, 156.779 92.586 C 174.322 74.381, 180.023 54.400, 173.003 35.715 C 170.360 28.679, 162.238 19.536, 155.255 15.735 C 145.311 10.323, 129.678 8.466, 119 11.427 M 120.782 15.553 C 108.594 18.508, 95.622 27.316, 87.012 38.482 C 82.523 44.303, 82.523 44.303, 85.512 46.631 C 87.155 47.911, 91.332 51.188, 94.792 53.912 C 101.085 58.864, 101.085 58.864, 105.292 56.979 C 109.500 55.094, 109.500 55.094, 109.168 49.711 C 108.611 40.668, 112.978 33.223, 121.500 28.688 C 126.599 25.975, 137.945 25.714, 142.561 28.204 C 146.683 30.428, 151.515 35.497, 153.704 39.892 C 155.978 44.460, 156.025 54.323, 153.792 58.521 C 150.268 65.147, 141.894 70.929, 135.750 70.978 C 133.413 70.997, 133 71.418, 133 73.789 C 133 75.322, 132.104 78.335, 131.008 80.484 C 129.478 83.485, 129.304 84.574, 130.258 85.177 C 131.003 85.649, 132.016 85.272, 132.789 84.236 C 133.913 82.732, 134.200 82.702, 135.024 84.005 C 135.782 85.203, 135.972 85.053, 135.985 83.250 C 135.993 82.013, 136.450 81, 137 81 C 137.550 81, 138 81.900, 138 83 C 138 84.100, 138.450 85, 139 85 C 139.550 85, 140 83.875, 140 82.500 C 140 81.125, 140.450 80, 141 80 C 141.550 80, 142 81.125, 142 82.500 C 142 83.875, 142.450 85, 143 85 C 143.550 85, 144 84.100, 144 83 C 144 81.900, 144.450 81, 145 81 C 145.550 81, 146 83.250, 146 86 C 146 89.778, 146.367 91, 147.500 91 C 149.340 91, 149.552 86.424, 147.750 85.583 C 146.750 85.117, 146.750 84.883, 147.750 84.417 C 148.438 84.096, 149 83.196, 149 82.417 C 149 81.638, 149.450 81, 150 81 C 150.550 81, 151 81.675, 151 82.500 C 151 84.871, 152.826 84.244, 153.184 81.750 C 153.422 80.089, 154.095 79.562, 155.753 79.738 C 157.078 79.879, 158 79.429, 158 78.643 C 158 77.910, 158.900 76.495, 160 75.500 C 161.100 74.505, 162 72.860, 162 71.845 C 162 70.830, 162.450 70, 163 70 C 163.550 70, 164 70.938, 164 72.083 C 164 76.174, 166.498 73.264, 168.835 66.450 C 172.031 57.136, 172.073 45.873, 168.944 37.551 C 162.387 20.111, 141.441 10.544, 120.782 15.553 M 17.751 30.628 C 16.789 30.913, 15.714 32.293, 15.362 33.694 C 14.191 38.358, 15.808 55.307, 18.205 63.500 C 20.492 71.319, 20.611 71.493, 23.485 71.179 C 36.148 69.796, 52.867 52.928, 55.496 38.883 C 56.173 35.266, 56.173 35.266, 47.836 32.986 C 39.812 30.792, 21.931 29.390, 17.751 30.628 M 127 31.175 C 119.503 33.305, 113.079 41.142, 113.022 48.227 C 112.974 54.174, 125.527 56.979, 131.677 52.395 C 137.815 47.820, 139.915 39.604, 136.590 33.174 C 134.818 29.747, 133.207 29.411, 127 31.175 M 142.490 37.010 C 142.927 39.974, 142.654 42.975, 141.695 45.760 C 140.356 49.646, 140.375 50, 141.917 50 C 146.054 50, 147.627 57.218, 144.171 60.345 C 140.588 63.588, 136 61.813, 136 57.185 C 136 54.785, 135.983 54.781, 133.271 56.558 C 131.770 57.542, 127.832 58.621, 124.521 58.956 C 118.500 59.566, 118.500 59.566, 123.358 62.727 C 131.841 68.248, 138.374 68.244, 144.670 62.716 C 149.091 58.835, 151 54.542, 151 48.482 C 151 43.122, 149.395 39.649, 145.001 35.500 C 141.824 32.500, 141.824 32.500, 142.490 37.010 M 59.572 40.466 C 59.222 42.333, 57.381 46.967, 55.481 50.765 C 49.940 61.841, 39.138 70.931, 26.750 74.941 C 24.688 75.609, 23.006 76.458, 23.014 76.828 C 23.044 78.282, 31.438 92.843, 35.665 98.775 C 44.922 111.765, 88.574 160.381, 90.122 159.425 C 90.605 159.126, 91 157.614, 91 156.063 C 91 152.215, 92.691 151.106, 99.671 150.377 C 111.547 149.135, 120.919 154.164, 123.972 163.414 C 125.328 167.525, 125.996 167.767, 128.465 165.038 C 130.188 163.135, 130.051 162.852, 123.870 155.518 C 117.287 147.706, 112 139.011, 112 135.996 C 112 133.007, 115.913 128.999, 118.823 129.009 C 122.460 129.022, 130.019 133.560, 138.821 141.015 C 146.141 147.216, 146.141 147.216, 148.571 144.934 C 151.724 141.971, 151.634 141.298, 147.976 140.495 C 139.769 138.692, 135.055 130.610, 135.022 118.286 C 135 110.072, 135 110.072, 141.057 108.286 C 147.114 106.500, 147.114 106.500, 131.807 92.420 C 94.458 58.065, 81.584 47.845, 65.355 39.665 C 60.209 37.072, 60.209 37.072, 59.572 40.466 M 28 42.500 C 28 46.591, 26.280 47.243, 25.816 43.327 C 25.356 39.434, 23 39.091, 23 42.917 C 23 45.333, 22.568 46, 21 46 C 19.900 46, 19 46.450, 19 47 C 19 47.550, 19.900 48, 21 48 C 22.667 48, 23 48.667, 23 52 C 23 54.889, 23.417 56, 24.500 56 C 25.583 56, 26 54.889, 26 52 C 26 49.800, 26.450 48, 27 48 C 27.550 48, 28 49.800, 28 52 C 28 54.889, 28.417 56, 29.500 56 C 30.576 56, 31 54.902, 31 52.117 C 31 48.976, 31.431 48.091, 33.250 47.490 C 35.500 46.746, 35.500 46.746, 33.250 46.303 C 31.440 45.947, 31 45.190, 31 42.430 C 31 40.048, 30.542 39, 29.500 39 C 28.452 39, 28 40.056, 28 42.500 M 140.731 55.920 C 140.296 57.583, 140.426 57.974, 141.168 57.232 C 141.750 56.650, 142.028 55.585, 141.788 54.863 C 141.538 54.114, 141.085 54.568, 140.731 55.920 M 108.115 60.548 C 104.730 62.017, 104.730 62.017, 111.115 67.826 C 127.379 82.623, 125.815 81.686, 127.502 77.650 C 129.801 72.146, 129.439 70.560, 125.560 69.158 C 123.669 68.474, 119.890 65.909, 117.164 63.457 C 114.437 61.006, 112.047 59.018, 111.853 59.039 C 111.659 59.061, 109.977 59.740, 108.115 60.548 M 64.737 75.596 C 63.188 77.146, 65.464 78, 71.142 78 C 75.515 78, 77.054 77.657, 76.754 76.750 C 76.312 75.409, 65.922 74.411, 64.737 75.596 M 57.639 77.694 C 57.288 78.046, 57 79.833, 57 81.667 C 57 84.704, 56.733 85, 54 85 C 52.350 85, 51 85.450, 51 86 C 51 86.550, 52.323 87, 53.940 87 C 56.615 87, 56.907 87.337, 57.190 90.750 C 57.360 92.813, 57.950 94.500, 58.500 94.500 C 59.050 94.500, 59.640 92.813, 59.810 90.750 C 60.119 87.026, 60.152 87, 64.560 87 C 69 87, 69 87, 69 92 C 69 96.276, 68.720 97, 67.066 97 C 65.700 97, 65.040 96.193, 64.816 94.250 C 64.430 90.893, 62.618 91.002, 62.190 94.407 C 61.981 96.063, 61.157 96.979, 59.690 97.188 C 56.849 97.593, 56.858 99.409, 59.702 99.813 C 61.629 100.087, 61.941 100.826, 62.202 105.734 C 62.632 113.825, 65 114.120, 65 106.083 C 65 100, 65 100, 71 100 C 77 100, 77 100, 77 104 C 77 106.200, 77.450 108, 78 108 C 78.550 108, 79 106.200, 79 104 C 79 100, 79 100, 84.500 100 C 90 100, 90 100, 90 104.500 C 90 109, 90 109, 83 109 C 79 109, 76 109.429, 76 110 C 76 110.571, 79 111, 83 111 C 90 111, 90 111, 90 114.500 C 90 116.425, 90.450 118, 91 118 C 91.550 118, 92 116.425, 92 114.500 C 92 111, 92 111, 100.500 111 C 105.500 111, 109 110.588, 109 110 C 109 109.412, 105.500 109, 100.500 109 C 92 109, 92 109, 92 104.500 C 92 100.004, 92.003 100, 95.583 100 C 100.102 100, 99.757 97.639, 95.173 97.187 C 92.400 96.913, 92 96.503, 92 93.937 C 92 92.321, 91.550 91, 91 91 C 90.450 91, 90 92.350, 90 94 C 90 96.970, 89.944 97, 84.500 97 C 79.056 97, 79 96.970, 79 94 C 79 92.350, 78.550 91, 78 91 C 77.450 91, 77 92.350, 77 94 C 77 96.606, 76.639 97, 74.250 97.001 C 71.570 97.001, 71.509 96.873, 71.847 92.001 C 72.193 87, 72.193 87, 78.156 87 C 81.876 87, 83.886 86.624, 83.500 86 C 83.160 85.450, 80.465 85, 77.511 85 C 72.702 85, 72.106 84.764, 71.820 82.750 C 71.430 80.004, 69.621 80.148, 69.180 82.960 C 68.914 84.658, 68.118 85, 64.430 85 C 60.048 85, 60 84.963, 60 81.559 C 60 78.194, 58.915 76.418, 57.639 77.694 M 161.079 78.583 C 161.127 79.748, 161.364 79.985, 161.683 79.188 C 161.972 78.466, 161.936 77.603, 161.604 77.271 C 161.272 76.939, 161.036 77.529, 161.079 78.583 M 151 89.059 C 151 90.844, 151.417 91.861, 152 91.500 C 152.550 91.160, 153 89.784, 153 88.441 C 153 87.098, 152.550 86, 152 86 C 151.450 86, 151 87.377, 151 89.059 M 138 90.059 C 138 91.191, 138.450 91.840, 139 91.500 C 139.550 91.160, 140 90.234, 140 89.441 C 140 88.648, 139.550 88, 139 88 C 138.450 88, 138 88.927, 138 90.059 M 142 89.500 C 142 90.325, 142.450 91, 143 91 C 143.550 91, 144 90.325, 144 89.500 C 144 88.675, 143.550 88, 143 88 C 142.450 88, 142 88.675, 142 89.500 M 141.565 94.895 C 141.260 95.388, 141.684 96.048, 142.506 96.364 C 143.413 96.712, 144 96.361, 144 95.469 C 144 93.851, 142.437 93.483, 141.565 94.895 M 146 95.622 C 146 96.951, 146.271 97.020, 147.500 96 C 148.325 95.315, 149 94.585, 149 94.378 C 149 94.170, 148.325 94, 147.500 94 C 146.675 94, 146 94.730, 146 95.622 M 153 110.728 C 151.075 110.868, 147.137 111.469, 144.250 112.063 C 139 113.143, 139 113.143, 139 118.604 C 139 124.248, 140.881 130.106, 143.690 133.210 C 144.942 134.593, 167.927 143, 170.457 143 C 170.756 143, 171 142.277, 171 141.393 C 171 140.313, 171.539 139.993, 172.645 140.417 C 173.570 140.772, 175.103 140.312, 176.151 139.364 C 178.559 137.185, 179.836 138.419, 177.661 140.823 C 175.639 143.056, 175.594 143.630, 177.387 144.318 C 178.360 144.692, 178.623 144.276, 178.270 142.925 C 177.713 140.796, 178.981 140.381, 180.723 142.123 C 181.553 142.953, 182.698 142.449, 185.120 140.186 C 188.603 136.930, 191.325 136.878, 188.389 140.123 C 187.007 141.649, 186.903 142.301, 187.883 143.274 C 188.861 144.245, 188.971 144.112, 188.408 142.635 C 187.824 141.101, 188.055 140.883, 189.708 141.407 C 190.947 141.800, 192.202 141.461, 192.981 140.523 C 193.676 139.685, 194.640 139, 195.122 139 C 196.517 139, 196.141 141.638, 194.559 142.951 C 193.767 143.608, 193.364 144.786, 193.664 145.567 C 194.413 147.519, 196 146.341, 196 143.834 C 196 142.485, 196.480 141.970, 197.406 142.326 C 198.179 142.622, 199.609 141.985, 200.582 140.909 C 201.763 139.605, 202.686 139.286, 203.353 139.953 C 204.019 140.619, 203.735 141.635, 202.500 143 C 201.051 144.601, 200.911 145.311, 201.856 146.256 C 202.802 147.202, 203.193 146.979, 203.649 145.233 C 203.971 144.005, 204.801 143, 205.494 143 C 206.188 143, 207.344 142.290, 208.065 141.422 C 209.239 140.007, 209.570 140.085, 211.272 142.172 C 213.165 144.494, 213.169 144.494, 212.691 142.298 C 212.428 141.087, 212.671 139.943, 213.232 139.756 C 214.209 139.430, 207.147 132.998, 198.342 126.192 C 191.889 121.204, 178.071 114.225, 171.472 112.620 C 164.851 111.011, 158.311 110.341, 153 110.728 M 145.750 114.716 C 144.211 114.949, 143 115.769, 143 116.578 C 143 117.732, 143.859 117.870, 147.250 117.262 C 157.907 115.352, 169.811 116.989, 179.217 121.658 C 184.415 124.239, 186 124.538, 186 122.937 C 186 121.471, 174.642 116.484, 168.201 115.121 C 163.124 114.047, 151.546 113.838, 145.750 114.716 M 117.678 133.656 C 113.239 138.095, 129.722 158.429, 146.948 169.764 C 151.651 172.859, 156.772 176.428, 158.327 177.696 C 159.881 178.963, 162.244 180, 163.577 180 C 169.698 180, 164.320 172.085, 145.572 153.500 C 130.980 139.035, 120.064 131.269, 117.678 133.656 M 184 145 C 184 145.550, 184.477 146, 185.059 146 C 185.641 146, 185.840 145.550, 185.500 145 C 185.160 144.450, 184.684 144, 184.441 144 C 184.198 144, 184 144.450, 184 145 M 208.629 144.791 C 207.904 145.964, 210.756 148.578, 211.715 147.619 C 212.081 147.252, 211.673 146.245, 210.809 145.380 C 209.874 144.445, 208.991 144.206, 208.629 144.791 M 215.095 145.750 C 215.831 146.713, 216.489 147.615, 216.556 147.756 C 216.624 147.897, 217.539 147.005, 218.589 145.773 C 219.927 144.206, 220.002 143.919, 218.839 144.816 C 217.719 145.680, 216.967 145.756, 216.530 145.049 C 216.174 144.472, 215.403 144, 214.819 144 C 214.172 144, 214.281 144.687, 215.095 145.750 M 94.636 159.640 C 92.309 176.619, 96.978 192.523, 108.842 208.028 C 114.585 215.533, 125.450 226.405, 124.380 223.576 C 123.807 222.060, 124.001 221.786, 125.294 222.283 C 127.756 223.227, 129.125 220.153, 129.094 213.750 C 129.080 210.835, 129.905 210.305, 131.687 212.087 C 134.056 214.456, 133.987 210.681, 131.455 199.286 C 128.964 188.081, 120.831 165.443, 117.430 160.254 C 115.137 156.754, 110.042 155, 102.168 155 C 95.272 155, 95.272 155, 94.636 159.640 M 160.750 159.632 C 158.459 160.306, 158.542 161.275, 161.085 163.577 C 168.331 170.134, 171.693 178.345, 168.750 182.295 C 166.823 184.881, 161.934 185.374, 158.913 183.287 C 146.525 174.731, 146.626 174.777, 145.721 177.226 C 144.583 180.301, 146.508 187.579, 149.760 192.500 C 152.403 196.500, 152.403 196.500, 153.541 192.500 C 155.251 186.489, 157.320 186.885, 159.843 193.706 C 161.022 196.893, 163.453 201.221, 165.244 203.324 C 168.500 207.148, 168.500 207.148, 168.153 202.074 C 167.846 197.571, 168.029 197, 169.782 197 C 171.014 197, 172.205 198.080, 172.946 199.869 C 173.599 201.447, 175.699 204.254, 177.612 206.109 C 181.090 209.480, 181.090 209.480, 180.795 204.990 C 180.404 199.040, 182.007 199.157, 186.763 205.427 C 190.630 210.526, 201.079 217.254, 202.667 215.667 C 204.347 213.986, 197.584 203.755, 192.456 200.221 C 186.265 195.955, 185.819 193.352, 191.364 193.841 C 194.245 194.096, 195.119 193.841, 194.802 192.841 C 194.393 191.548, 186.309 185.603, 183.844 184.781 C 183.133 184.544, 182.922 183.647, 183.327 182.590 C 183.876 181.160, 184.906 180.871, 188.449 181.152 C 192.884 181.505, 192.884 181.505, 190.751 179.235 C 188.420 176.754, 179.077 172, 176.531 172 C 174.393 172, 173.354 169.023, 175.104 167.914 C 175.872 167.428, 177.989 167.024, 179.809 167.015 C 183.877 166.996, 183.293 165.842, 177.495 162.444 C 173.186 159.919, 164.650 158.485, 160.750 159.632 M 99.120 161.927 C 96.157 167.139, 99.539 186.899, 104.512 193.427 C 107.311 197.103, 107.277 194.010, 104.449 187.771 C 102.068 182.518, 101.517 179.715, 101.053 170.500 C 100.550 160.497, 100.375 159.720, 99.120 161.927 M 133.500 220 C 132.771 221.180, 133.717 223, 135.059 223 C 135.577 223, 136 222.100, 136 221 C 136 218.891, 134.545 218.309, 133.500 220 M 129.446 224.087 C 128.416 225.755, 130.733 227.667, 132.113 226.287 C 133.267 225.133, 132.545 223, 131 223 C 130.515 223, 129.816 223.489, 129.446 224.087 M 128.500 229 C 129.495 230.100, 130.535 231, 130.810 231 C 131.085 231, 130.495 230.100, 129.500 229 C 128.505 227.900, 127.465 227, 127.190 227 C 126.915 227, 127.505 227.900, 128.500 229 M 134.025 228.470 C 132.373 230.460, 134.794 231.634, 136.674 229.755 C 137.982 228.446, 137.980 228.206, 136.651 227.696 C 135.823 227.379, 134.641 227.727, 134.025 228.470" stroke="none" fill="#040414" fill-rule="evenodd"/></svg>